<svg width="125" height="27" viewBox="0 0 125 27" fill="none" xmlns="http://www.w3.org/2000/svg">
<path d="M118.723 22.8261C117.437 22.8261 116.265 22.5177 115.207 21.9008C114.15 21.2839 113.313 20.4467 112.696 19.3893C112.097 18.3318 111.797 17.1509 111.797 15.8466C111.797 14.5424 112.105 13.3704 112.722 12.3305C113.339 11.273 114.167 10.4358 115.207 9.81893C116.265 9.18444 117.437 8.86719 118.723 8.86719C119.746 8.86719 120.724 9.06106 121.658 9.44881C122.61 9.83656 123.429 10.3829 124.117 11.0879L122.478 12.9121C121.966 12.3481 121.394 11.9251 120.759 11.6431C120.125 11.3611 119.464 11.2201 118.776 11.2201C117.966 11.2201 117.225 11.4228 116.556 11.8282C115.903 12.2335 115.384 12.7887 114.996 13.4937C114.608 14.1987 114.414 14.983 114.414 15.8466C114.414 16.7103 114.608 17.4946 114.996 18.1996C115.384 18.9046 115.912 19.4686 116.582 19.8916C117.252 20.2969 118.001 20.4996 118.829 20.4996C119.517 20.4996 120.16 20.3674 120.759 20.1031C121.358 19.8211 121.922 19.4157 122.451 18.8869L124.064 20.5789C123.359 21.3016 122.539 21.8567 121.605 22.2445C120.689 22.6322 119.728 22.8261 118.723 22.8261Z" fill="black"/>
<path d="M106.642 22.5872V9.1306H109.286V22.5872H106.642ZM107.964 6.96273C107.524 6.96273 107.145 6.80411 106.827 6.48686C106.51 6.15199 106.352 5.76424 106.352 5.32362C106.352 4.86537 106.51 4.48643 106.827 4.18681C107.145 3.86956 107.524 3.71094 107.964 3.71094C108.422 3.71094 108.81 3.86956 109.127 4.18681C109.445 4.48643 109.603 4.86537 109.603 5.32362C109.603 5.76424 109.445 6.15199 109.127 6.48686C108.81 6.80411 108.422 6.96273 107.964 6.96273Z" fill="black"/>
<path d="M102.132 22.8284C100.827 22.8284 99.8315 22.5288 99.1441 21.9295C98.4567 21.3127 98.113 20.4226 98.113 19.2594V11.3546H95.2578V9.13385H98.113V5.697L100.73 5.0625V9.13385H104.696V11.3546H100.73V18.6513C100.73 19.3387 100.88 19.8322 101.18 20.1318C101.497 20.4138 102.008 20.5548 102.713 20.5548C103.083 20.5548 103.409 20.5283 103.691 20.4755C103.991 20.4226 104.308 20.3433 104.643 20.2375V22.4583C104.291 22.5817 103.876 22.6698 103.401 22.7227C102.942 22.7931 102.519 22.8284 102.132 22.8284Z" fill="black"/>
<path d="M86.5625 22.5864V9.12975H89.2062V10.8482C89.6292 10.2137 90.1492 9.72018 90.766 9.36768C91.4005 8.99756 92.1143 8.8125 92.9075 8.8125C93.4538 8.83012 93.9033 8.90944 94.2558 9.05044V11.4298C94.009 11.324 93.7535 11.2535 93.4891 11.2183C93.2247 11.1654 92.9603 11.139 92.696 11.139C91.9205 11.139 91.2331 11.3505 90.6339 11.7735C90.0346 12.1789 89.5587 12.7781 89.2062 13.5712V22.5864H86.5625Z" fill="black"/>
<path d="M76.7485 22.8261C75.7791 22.8261 74.9243 22.6587 74.184 22.3238C73.4438 21.9713 72.8622 21.4866 72.4392 20.8697C72.0162 20.2529 71.8047 19.5391 71.8047 18.7283C71.8047 17.4593 72.2894 16.4635 73.2587 15.7409C74.2281 15.0007 75.5588 14.6305 77.2508 14.6305C78.5726 14.6305 79.7976 14.8861 80.9256 15.3972V13.9696C80.9256 13.0002 80.6436 12.2776 80.0796 11.8017C79.5332 11.3259 78.7225 11.0879 77.6473 11.0879C77.0305 11.0879 76.3872 11.1849 75.7174 11.3787C75.0477 11.555 74.2986 11.837 73.4702 12.2247L72.4921 10.2419C73.5143 9.76606 74.466 9.42237 75.3473 9.21087C76.2285 8.98175 77.1186 8.86719 78.0175 8.86719C79.7623 8.86719 81.1106 9.28137 82.0624 10.1097C83.0317 10.9381 83.5164 12.119 83.5164 13.6523V22.5882H80.9256V21.4249C80.3263 21.9008 79.683 22.2533 78.9956 22.4824C78.3083 22.7115 77.5592 22.8261 76.7485 22.8261ZM74.3427 18.6754C74.3427 19.3276 74.6159 19.8563 75.1622 20.2617C75.7262 20.6494 76.4577 20.8433 77.3565 20.8433C78.0615 20.8433 78.7048 20.7464 79.2865 20.5525C79.8857 20.341 80.4321 20.0149 80.9256 19.5743V17.3007C80.4145 17.0011 79.8769 16.7896 79.3129 16.6662C78.7665 16.5252 78.1497 16.4547 77.4623 16.4547C76.4929 16.4547 75.7262 16.6574 75.1622 17.0628C74.6159 17.4505 74.3427 17.9881 74.3427 18.6754Z" fill="black"/>
<path d="M62.6985 22.8538C61.6587 22.8538 60.7422 22.6335 59.949 22.1929C59.1559 21.7522 58.5391 21.1354 58.0984 20.3422C57.6578 19.5315 57.4375 18.6062 57.4375 17.5663V9.13281H60.0548V17.1169C60.0548 18.1744 60.3544 19.0116 60.9537 19.6284C61.5705 20.2453 62.3901 20.5537 63.4123 20.5537C64.135 20.5537 64.7783 20.4039 65.3423 20.1043C65.9063 19.7871 66.3645 19.3464 66.717 18.7824V9.13281H69.3607V22.5894H66.717V21.2147C65.6771 22.3074 64.3376 22.8538 62.6985 22.8538Z" fill="black"/>
<path d="M51.2339 23.1941L49.9649 21.6607C49.2775 22.0308 48.5372 22.3305 47.7441 22.5596C46.951 22.7711 46.1226 22.8768 45.259 22.8768C43.9019 22.8768 42.6329 22.6389 41.452 22.163C40.2888 21.6695 39.2665 20.991 38.3853 20.1273C37.5041 19.2461 36.8167 18.2327 36.3232 17.087C35.8473 15.9238 35.6094 14.6724 35.6094 13.3329C35.6094 11.9935 35.8473 10.7509 36.3232 9.60528C36.8167 8.44204 37.5041 7.4286 38.3853 6.56498C39.2665 5.68374 40.2888 5.00518 41.452 4.52931C42.6329 4.03581 43.9019 3.78906 45.259 3.78906C46.5985 3.78906 47.8499 4.03581 49.0131 4.52931C50.1764 5.00518 51.1986 5.68374 52.0798 6.56498C52.9611 7.4286 53.6485 8.44204 54.142 9.60528C54.6355 10.7509 54.8822 11.9935 54.8822 13.3329C54.8822 14.6901 54.6178 15.9679 54.0891 17.1664C53.5603 18.3649 52.8377 19.3959 51.9212 20.2595L53.8247 22.586L51.2339 23.1941ZM45.259 20.3124C45.8054 20.3124 46.3253 20.2507 46.8188 20.1273C47.3299 20.004 47.8058 19.8189 48.2464 19.5722L45.8671 16.6905L48.4844 16.056L50.2028 18.1445C50.7844 17.5277 51.2338 16.8051 51.5511 15.9767C51.886 15.1483 52.0534 14.2671 52.0534 13.3329C52.0534 12.3283 51.8772 11.403 51.5247 10.557C51.1722 9.71103 50.6875 8.9796 50.0706 8.36272C49.4537 7.72823 48.7311 7.23473 47.9027 6.88223C47.092 6.52973 46.2108 6.35349 45.259 6.35349C44.2896 6.35349 43.3908 6.52973 42.5624 6.88223C41.734 7.23473 41.0114 7.72823 40.3945 8.36272C39.7777 8.9796 39.293 9.71103 38.9405 10.557C38.6056 11.403 38.4382 12.3283 38.4382 13.3329C38.4382 14.3199 38.6056 15.2452 38.9405 16.1089C39.293 16.9549 39.7777 17.6951 40.3945 18.3296C41.0114 18.9465 41.734 19.4312 42.5624 19.7837C43.3908 20.1362 44.2896 20.3124 45.259 20.3124Z" fill="black"/>
<path d="M27 9L9 27L0 18L18 0H27V9Z" fill="url(#paint0_linear_3015_3352)" fill-opacity="0.7"/>
<rect x="18" width="9.00003" height="9.00003" fill="#F15A29"/>
<rect width="9.00003" height="9.00003" fill="black"/>
<rect y="18" width="9.00003" height="9.00003" fill="black"/>
<rect x="18" y="18" width="9.00003" height="9.00003" fill="black"/>
<defs>
<linearGradient id="paint0_linear_3015_3352" x1="7.80882" y1="19.3235" x2="23.4265" y2="3.97059" gradientUnits="userSpaceOnUse">
<stop stop-color="white"/>
<stop offset="1" stop-color="#F15A29"/>
</linearGradient>
</defs>
</svg>
